<svg id="Layer_1" data-name="Layer 1" xmlns="http://www.w3.org/2000/svg" viewBox="0 0 428.84 428.84"><defs><style>.cls-1{fill:#a1a6fc;}</style></defs><path class="cls-1" d="M1214.42,929.93v141c-.58-.41-.58.13-.68.43a19.54,19.54,0,0,1-8.3,10.34l-190.53,127c-3.08,2.06-6,4.4-9.67,5.41-.14,0-.23.23-.34.35l.25.21h-9.61c.4-.55-.18-.53-.39-.59a22.11,22.11,0,0,1-6.24-3.16l-138.43-92.38q-27.74-18.49-55.46-37c-4.25-2.83-7.35-6.47-8.59-11.52-.12-.49-.21-1-.37-1.48-.09-.25-.31-.29-.48,0V932c.62.33.57-.21.63-.51,1.13-5.54,4.34-9.5,9-12.6q97-64.61,194-129.29a21.41,21.41,0,0,1,6.29-3,1.48,1.48,0,0,0,.63-.23c.19-.2.07-.4-.21-.47h8.24c-.4.56.19.52.41.57a22.06,22.06,0,0,1,7.36,3.53q45,30,89.95,60l103.51,69a21.42,21.42,0,0,1,6,5.56,18.9,18.9,0,0,1,2.42,4.89C1213.85,929.69,1213.81,930.25,1214.42,929.93ZM1162.78,935a2.74,2.74,0,0,0-1-.85l-142.68-95a.22.22,0,0,0-.16,0s-.09.06-.24.17v1.61q0,41,0,82a3,3,0,0,0,1.55,2.9q38.5,25.68,77,51.43c1.77,1.19,1.31,1,2.8,0q30.8-20.58,61.56-41.18C1162,935.77,1162.54,935.58,1162.78,935ZM1019,1161.67l144-96c-.34-.28-.46-.4-.61-.5q-31.41-21-62.82-42.06a1.58,1.58,0,0,0-2.1.09q-38.82,26-77.67,51.93a2.38,2.38,0,0,0-1.16,2.24q0,41.33,0,82.67C1018.67,1160.57,1018.48,1161.11,1019,1161.67Zm-37.19.26v-2.15q0-41,0-82a3,3,0,0,0-1.51-2.89q-24.2-16.08-48.32-32.27-14.38-9.63-28.78-19.24c-1.55-1-1-1-2.64,0a2.9,2.9,0,0,0-.29.19l-61.12,40.88a6.08,6.08,0,0,0-1.6,1.26Zm0-323.12-144.2,96.11a4.38,4.38,0,0,0,1.47,1.22l61.41,41.08c1.73,1.16,1.32,1,2.81,0q38.55-25.75,77.11-51.52a2.87,2.87,0,0,0,1.42-2.77q0-41.09,0-82.16Zm-46.49,161.58a4,4,0,0,0,1.19.93q31.22,20.86,62.42,41.73c1.53,1,1,1,2.65,0q31.22-20.87,62.42-41.74c.4-.27.9-.45,1.18-1-.42-.31-.82-.62-1.24-.9l-62.41-41.76c-1.3-.87-1.31-.87-2.65,0q-31.12,20.83-62.26,41.67C936.18,999.62,935.6,999.82,935.34,1000.39Zm-112.62,30.77,45.9-30.69c-1.63-1.54-44.72-30.24-45.9-30.58Zm309.09-30.88c3.54,2.83,44.66,30.12,45.86,30.46V969.61Z" transform="translate(-785.58 -785.85)"/></svg>