<svg id="Layer_1" data-name="Layer 1" xmlns="http://www.w3.org/2000/svg" viewBox="0 0 428.78 428.8"><defs><style>.cls-1{fill:#a1a6fc;}</style></defs><path class="cls-1" d="M999.71,1214.38c-27.34,0-54.68,0-82,0-73.52-.16-131.93-58.62-132-132.22q-.1-82,0-164.05c.09-73.94,58.45-132.35,132.34-132.45q82-.1,164,0c73.87.1,132.21,58.52,132.3,132.49q.11,81.75,0,163.51c-.08,74.33-58.34,132.6-132.62,132.72Q1040.73,1214.45,999.71,1214.38ZM820.65,999.46c0,27.88-.06,55.76,0,83.65.14,53.05,43,96.13,96,96.24q83.36.18,166.72,0c53-.11,95.87-43.17,96-96.25q.15-83.08,0-166.19a96.34,96.34,0,0,0-96.52-96.25q-82.82-.12-165.63,0c-53.68.08-96.42,43-96.52,96.8C820.6,944.79,820.65,972.13,820.65,999.46Z" transform="translate(-785.61 -785.6)"/><path class="cls-1" d="M889.36,1000.17c.09-62.38,50.22-111.85,113.22-111.73,61.21.12,111.3,51,111.15,113-.15,61.48-50.74,111.47-112.68,111.35C938.74,1112.66,889.26,1062.78,889.36,1000.17Zm112.13,77.59c42.67-.08,77.31-34.81,77.15-77.33a77.4,77.4,0,0,0-77.6-77c-42.83.09-76.82,34.39-76.77,77.46S958.34,1077.85,1001.49,1077.76Z" transform="translate(-785.61 -785.6)"/><path class="cls-1" d="M1089.58,885a24.74,24.74,0,1,1,24.83,25.12C1100.82,910.23,1089.56,898.83,1089.58,885Z" transform="translate(-785.61 -785.6)"/></svg>