<svg id="Layer_1" data-name="Layer 1" xmlns="http://www.w3.org/2000/svg" viewBox="0 0 525.68 428.8"><defs><style>.cls-1{fill:#a1a6fc;}</style></defs><path class="cls-1" d="M738.23,1164c56.88,4.13,107.6-9.85,155.25-44.64-48.64-6-82.38-28.94-100.41-74.87,14.1-.6,27.3,2.63,42.39-2.69-48.48-19.85-79-51.9-80.8-106.58,15.23,4.8,28.54,11.76,45.58,11.11-45.37-40.39-57.21-87-31.7-141.6,5.52.82,7,4.57,9.39,7.16,55.19,60.74,123.78,94.6,205.23,103.5,12.34,1.34,10.85-4.5,10.21-12.53-5.46-68.65,45.86-122.63,114-119.75a103.56,103.56,0,0,1,66.54,27.19c5.85,5.27,10.9,6.34,18.54,4.43,19.1-4.78,36.84-13.09,55.73-21.59-5.33,20.35-12.16,29.68-40.51,56.06,19.59-.71,36.28-7.87,56.24-14.12-11.87,18.27-24.47,32.45-39.61,43.9-9.65,7.29-13.46,14.79-13.56,27.37-1.43,180.94-153.59,319.15-333.9,304.37a318.56,318.56,0,0,1-126.38-37.3c-3.64-2-7.2-4.11-10.7-6.32C739.12,1166.68,739,1165.51,738.23,1164Z" transform="translate(-738.23 -783)"/></svg>