<svg id="Layer_1" data-name="Layer 1" xmlns="http://www.w3.org/2000/svg" viewBox="0 0 619.96 428.8"><defs><style>.cls-1{fill:#a1a6fc;}</style></defs><path class="cls-1" d="M1002.57,1211.72c-58.65.31-113.46-.19-168.21-3.28-21.6-1.22-43.23-2.38-64.53-6.49-40.42-7.82-65.22-33.71-71.74-74.44-5.16-32.22-6.88-64.7-7.65-97.27-1-40.61-.4-81.19,2.73-121.71,1.41-18.29,3-36.63,7.69-54.4,9.09-34.58,33.24-53.64,67-60.72,28.7-6,58.1-6.52,87.33-7.86,43.66-2,87.35-2.4,131.06-2.53,61.82-.18,123.62.82,185.36,4.27,19.12,1.07,38.25,2.44,57.19,5.57,40.6,6.7,63.42,29.18,70.87,69.78,7.17,39,9.1,78.53,10,118.1a944.94,944.94,0,0,1-5.27,122.8c-1.37,12.9-3,25.83-6.54,38.34-9.52,33.85-33.07,52.84-66.52,59.66-28.32,5.78-57.29,6.37-86.1,7.7C1096.46,1211.51,1047.61,1212,1002.57,1211.72Zm-61.84-119.2c2-1.17,3.6-2,5.13-3l144.06-88.68c5.63-3.47,5.64-3.5-.05-7L949,907.18c-2.57-1.58-5.16-3.13-8.25-5Z" transform="translate(-690.02 -783)"/></svg>